<svg xmlns="http://www.w3.org/2000/svg" width="920" height="520" viewBox="0 0 920 520"><style>text{font-family:Arial,Helvetica,sans-serif;fill:#27313f}.title{font-size:24px;font-weight:700}.label{font-size:13px}.axis-title{font-size:16px;font-weight:700;fill:#27313f}.small{font-size:11px;fill:#566474}.axis{stroke:#8d99a8;stroke-width:1}.grid{stroke:#d9dee7;stroke-width:1}</style>
<text x="32.0" y="38.0" class="title" text-anchor="start">Observed default rate by education segment</text>
<line x1="96" y1="402.0" x2="878" y2="402.0" class="grid"/>
<text x="86.0" y="406.0" class="small" text-anchor="end">0.00</text>
<line x1="96" y1="319.0" x2="878" y2="319.0" class="grid"/>
<text x="86.0" y="323.0" class="small" text-anchor="end">0.05</text>
<line x1="96" y1="236.0" x2="878" y2="236.0" class="grid"/>
<text x="86.0" y="240.0" class="small" text-anchor="end">0.09</text>
<line x1="96" y1="153.0" x2="878" y2="153.0" class="grid"/>
<text x="86.0" y="157.0" class="small" text-anchor="end">0.14</text>
<line x1="96" y1="70.0" x2="878" y2="70.0" class="grid"/>
<text x="86.0" y="74.0" class="small" text-anchor="end">0.19</text>
<line x1="96" y1="70" x2="96" y2="402" class="axis"/>
<line x1="96" y1="402" x2="878" y2="402" class="axis"/>
<text x="34.0" y="236.0" class="axis-title" text-anchor="middle" transform="rotate(-90 34.0 236.0)">Observed default rate</text>
<text x="487.0" y="492.0" class="axis-title" text-anchor="middle">Education segment</text>
<rect x="96.0" y="125.3" width="182.0" height="276.7" rx="4" fill="#2474a6"/>
<text x="187.0" y="117.3" class="small" text-anchor="middle">0.16</text>
<text x="187.0" y="428.0" class="small" text-anchor="middle">other</text>
<rect x="296.0" y="158.8" width="182.0" height="243.2" rx="4" fill="#2474a6"/>
<text x="387.0" y="150.8" class="small" text-anchor="middle">0.14</text>
<text x="387.0" y="428.0" class="small" text-anchor="middle">university</text>
<rect x="496.0" y="164.1" width="182.0" height="237.9" rx="4" fill="#2474a6"/>
<text x="587.0" y="156.1" class="small" text-anchor="middle">0.14</text>
<text x="587.0" y="428.0" class="small" text-anchor="middle">high_school</text>
<rect x="696.0" y="204.6" width="182.0" height="197.4" rx="4" fill="#2474a6"/>
<text x="787.0" y="196.6" class="small" text-anchor="middle">0.11</text>
<text x="787.0" y="428.0" class="small" text-anchor="middle">graduate</text>
</svg>