<svg xmlns="http://www.w3.org/2000/svg" width="960" height="560" viewBox="0 0 960 560"><style>text{font-family:Arial,Helvetica,sans-serif;fill:#27313f}.title{font-size:24px;font-weight:700}.label{font-size:13px}.axis-title{font-size:13px;font-weight:700;fill:#344052}.small{font-size:11px;fill:#566474}.axis{stroke:#8d99a8;stroke-width:1}.grid{stroke:#d9dee7;stroke-width:1}</style>
<text x="32.0" y="38.0" class="title" text-anchor="start">Top model explanation signals</text>
<line x1="250" y1="488" x2="916" y2="488" class="axis"/>
<text x="24.0" y="279.0" class="axis-title" text-anchor="middle" transform="rotate(-90 24.0 279.0)">Feature</text>
<text x="583.0" y="536.0" class="axis-title" text-anchor="middle">Relative importance</text>
<text x="238.0" y="101.0" class="small" text-anchor="end">utilization_ratio</text>
<rect x="250" y="78.0" width="564.4" height="24.2" rx="4" fill="#2474a6"/>
<text x="822.4" y="101.0" class="small" text-anchor="start">0.566</text>
<text x="238.0" y="142.8" class="small" text-anchor="end">months_with_delay</text>
<rect x="250" y="119.8" width="408.5" height="24.2" rx="4" fill="#2474a6"/>
<text x="666.5" y="142.8" class="small" text-anchor="start">0.409</text>
<text x="238.0" y="184.6" class="small" text-anchor="end">bill_amt_6</text>
<rect x="250" y="161.6" width="188.0" height="24.2" rx="4" fill="#2474a6"/>
<text x="446.0" y="184.6" class="small" text-anchor="start">0.188</text>
<text x="238.0" y="226.4" class="small" text-anchor="end">pay_status_1</text>
<rect x="250" y="203.4" width="154.1" height="24.2" rx="4" fill="#2474a6"/>
<text x="412.1" y="226.4" class="small" text-anchor="start">0.154</text>
<text x="238.0" y="268.2" class="small" text-anchor="end">bill_amt_3</text>
<rect x="250" y="245.2" width="147.3" height="24.2" rx="4" fill="#2474a6"/>
<text x="405.3" y="268.2" class="small" text-anchor="start">0.148</text>
<text x="238.0" y="310.0" class="small" text-anchor="end">pay_amt_1</text>
<rect x="250" y="287.0" width="132.8" height="24.2" rx="4" fill="#2474a6"/>
<text x="390.8" y="310.0" class="small" text-anchor="start">0.133</text>
<text x="238.0" y="351.8" class="small" text-anchor="end">age_group_40_to_49</text>
<rect x="250" y="328.8" width="129.4" height="24.2" rx="4" fill="#2474a6"/>
<text x="387.4" y="351.8" class="small" text-anchor="start">0.130</text>
<text x="238.0" y="393.6" class="small" text-anchor="end">bill_amt_2</text>
<rect x="250" y="370.6" width="124.8" height="24.2" rx="4" fill="#2474a6"/>
<text x="382.8" y="393.6" class="small" text-anchor="start">0.125</text>
<text x="238.0" y="435.4" class="small" text-anchor="end">age</text>
<rect x="250" y="412.4" width="124.2" height="24.2" rx="4" fill="#2474a6"/>
<text x="382.2" y="435.4" class="small" text-anchor="start">0.124</text>
<text x="238.0" y="477.2" class="small" text-anchor="end">bill_amt_5</text>
<rect x="250" y="454.2" width="106.3" height="24.2" rx="4" fill="#2474a6"/>
<text x="364.3" y="477.2" class="small" text-anchor="start">0.107</text>
</svg>