<svg xmlns="http://www.w3.org/2000/svg" width="920" height="520" viewBox="0 0 920 520"><style>text{font-family:Arial,Helvetica,sans-serif;fill:#27313f}.title{font-size:24px;font-weight:700}.label{font-size:13px}.axis-title{font-size:13px;font-weight:700;fill:#344052}.small{font-size:11px;fill:#566474}.axis{stroke:#8d99a8;stroke-width:1}.grid{stroke:#d9dee7;stroke-width:1}</style>
<text x="32.0" y="38.0" class="title" text-anchor="start">Monte Carlo baseline loss distribution</text>
<line x1="96" y1="402.0" x2="878" y2="402.0" class="grid"/>
<text x="86.0" y="406.0" class="small" text-anchor="end">0</text>
<line x1="96" y1="319.0" x2="878" y2="319.0" class="grid"/>
<text x="86.0" y="323.0" class="small" text-anchor="end">343</text>
<line x1="96" y1="236.0" x2="878" y2="236.0" class="grid"/>
<text x="86.0" y="240.0" class="small" text-anchor="end">686</text>
<line x1="96" y1="153.0" x2="878" y2="153.0" class="grid"/>
<text x="86.0" y="157.0" class="small" text-anchor="end">1029</text>
<line x1="96" y1="70.0" x2="878" y2="70.0" class="grid"/>
<text x="86.0" y="74.0" class="small" text-anchor="end">1372</text>
<line x1="96" y1="70" x2="96" y2="402" class="axis"/>
<line x1="96" y1="402" x2="878" y2="402" class="axis"/>
<text x="24.0" y="236.0" class="axis-title" text-anchor="middle" transform="rotate(-90 24.0 236.0)">Simulation count</text>
<text x="487.0" y="492.0" class="axis-title" text-anchor="middle">Portfolio loss (GBP millions)</text>
<rect x="96.0" y="401.5" width="10.6" height="0.5" rx="4" fill="#5a7f3b"/>
<text x="101.3" y="393.5" class="small" text-anchor="middle">2</text>
<text x="101.3" y="428.0" class="small" text-anchor="middle">5.5</text>
<rect x="124.6" y="401.8" width="10.6" height="0.2" rx="4" fill="#5a7f3b"/>
<text x="129.9" y="393.8" class="small" text-anchor="middle">1</text>
<text x="129.9" y="428.0" class="small" text-anchor="middle">5.6</text>
<rect x="153.1" y="400.8" width="10.6" height="1.2" rx="4" fill="#5a7f3b"/>
<text x="158.4" y="392.8" class="small" text-anchor="middle">5</text>
<text x="158.4" y="428.0" class="small" text-anchor="middle">5.7</text>
<rect x="181.7" y="396.9" width="10.6" height="5.1" rx="4" fill="#5a7f3b"/>
<text x="187.0" y="388.9" class="small" text-anchor="middle">21</text>
<text x="187.0" y="428.0" class="small" text-anchor="middle">5.7</text>
<rect x="210.3" y="394.3" width="10.6" height="7.7" rx="4" fill="#5a7f3b"/>
<text x="215.6" y="386.3" class="small" text-anchor="middle">32</text>
<text x="215.6" y="428.0" class="small" text-anchor="middle">5.8</text>
<rect x="238.9" y="383.1" width="10.6" height="18.9" rx="4" fill="#5a7f3b"/>
<text x="244.1" y="375.1" class="small" text-anchor="middle">78</text>
<text x="244.1" y="428.0" class="small" text-anchor="middle">5.9</text>
<rect x="267.4" y="365.2" width="10.6" height="36.8" rx="4" fill="#5a7f3b"/>
<text x="272.7" y="357.2" class="small" text-anchor="middle">152</text>
<text x="272.7" y="428.0" class="small" text-anchor="middle">6.0</text>
<rect x="296.0" y="337.4" width="10.6" height="64.6" rx="4" fill="#5a7f3b"/>
<text x="301.3" y="329.4" class="small" text-anchor="middle">267</text>
<text x="301.3" y="428.0" class="small" text-anchor="middle">6.1</text>
<rect x="324.6" y="306.6" width="10.6" height="95.4" rx="4" fill="#5a7f3b"/>
<text x="329.9" y="298.6" class="small" text-anchor="middle">394</text>
<text x="329.9" y="428.0" class="small" text-anchor="middle">6.2</text>
<rect x="353.1" y="262.6" width="10.6" height="139.4" rx="4" fill="#5a7f3b"/>
<text x="358.4" y="254.6" class="small" text-anchor="middle">576</text>
<text x="358.4" y="428.0" class="small" text-anchor="middle">6.3</text>
<rect x="381.7" y="232.6" width="10.6" height="169.4" rx="4" fill="#5a7f3b"/>
<text x="387.0" y="224.6" class="small" text-anchor="middle">700</text>
<text x="387.0" y="428.0" class="small" text-anchor="middle">6.3</text>
<rect x="410.3" y="169.1" width="10.6" height="232.9" rx="4" fill="#5a7f3b"/>
<text x="415.6" y="161.1" class="small" text-anchor="middle">962</text>
<text x="415.6" y="428.0" class="small" text-anchor="middle">6.4</text>
<rect x="438.9" y="157.5" width="10.6" height="244.5" rx="4" fill="#5a7f3b"/>
<text x="444.1" y="149.5" class="small" text-anchor="middle">1010</text>
<text x="444.1" y="428.0" class="small" text-anchor="middle">6.5</text>
<rect x="467.4" y="125.3" width="10.6" height="276.7" rx="4" fill="#5a7f3b"/>
<text x="472.7" y="117.3" class="small" text-anchor="middle">1143</text>
<text x="472.7" y="428.0" class="small" text-anchor="middle">6.6</text>
<rect x="496.0" y="143.0" width="10.6" height="259.0" rx="4" fill="#5a7f3b"/>
<text x="501.3" y="135.0" class="small" text-anchor="middle">1070</text>
<text x="501.3" y="428.0" class="small" text-anchor="middle">6.7</text>
<rect x="524.6" y="174.2" width="10.6" height="227.8" rx="4" fill="#5a7f3b"/>
<text x="529.9" y="166.2" class="small" text-anchor="middle">941</text>
<text x="529.9" y="428.0" class="small" text-anchor="middle">6.8</text>
<rect x="553.1" y="204.5" width="10.6" height="197.5" rx="4" fill="#5a7f3b"/>
<text x="558.4" y="196.5" class="small" text-anchor="middle">816</text>
<text x="558.4" y="428.0" class="small" text-anchor="middle">6.9</text>
<rect x="581.7" y="250.7" width="10.6" height="151.3" rx="4" fill="#5a7f3b"/>
<text x="587.0" y="242.7" class="small" text-anchor="middle">625</text>
<text x="587.0" y="428.0" class="small" text-anchor="middle">6.9</text>
<rect x="610.3" y="290.9" width="10.6" height="111.1" rx="4" fill="#5a7f3b"/>
<text x="615.6" y="282.9" class="small" text-anchor="middle">459</text>
<text x="615.6" y="428.0" class="small" text-anchor="middle">7.0</text>
<rect x="638.9" y="327.7" width="10.6" height="74.3" rx="4" fill="#5a7f3b"/>
<text x="644.1" y="319.7" class="small" text-anchor="middle">307</text>
<text x="644.1" y="428.0" class="small" text-anchor="middle">7.1</text>
<rect x="667.4" y="354.3" width="10.6" height="47.7" rx="4" fill="#5a7f3b"/>
<text x="672.7" y="346.3" class="small" text-anchor="middle">197</text>
<text x="672.7" y="428.0" class="small" text-anchor="middle">7.2</text>
<rect x="696.0" y="374.9" width="10.6" height="27.1" rx="4" fill="#5a7f3b"/>
<text x="701.3" y="366.9" class="small" text-anchor="middle">112</text>
<text x="701.3" y="428.0" class="small" text-anchor="middle">7.3</text>
<rect x="724.6" y="387.0" width="10.6" height="15.0" rx="4" fill="#5a7f3b"/>
<text x="729.9" y="379.0" class="small" text-anchor="middle">62</text>
<text x="729.9" y="428.0" class="small" text-anchor="middle">7.4</text>
<rect x="753.1" y="394.3" width="10.6" height="7.7" rx="4" fill="#5a7f3b"/>
<text x="758.4" y="386.3" class="small" text-anchor="middle">32</text>
<text x="758.4" y="428.0" class="small" text-anchor="middle">7.5</text>
<rect x="781.7" y="397.2" width="10.6" height="4.8" rx="4" fill="#5a7f3b"/>
<text x="787.0" y="389.2" class="small" text-anchor="middle">20</text>
<text x="787.0" y="428.0" class="small" text-anchor="middle">7.6</text>
<rect x="810.3" y="398.9" width="10.6" height="3.1" rx="4" fill="#5a7f3b"/>
<text x="815.6" y="390.9" class="small" text-anchor="middle">13</text>
<text x="815.6" y="428.0" class="small" text-anchor="middle">7.6</text>
<rect x="838.9" y="401.5" width="10.6" height="0.5" rx="4" fill="#5a7f3b"/>
<text x="844.1" y="393.5" class="small" text-anchor="middle">2</text>
<text x="844.1" y="428.0" class="small" text-anchor="middle">7.7</text>
<rect x="867.4" y="401.8" width="10.6" height="0.2" rx="4" fill="#5a7f3b"/>
<text x="872.7" y="393.8" class="small" text-anchor="middle">1</text>
<text x="872.7" y="428.0" class="small" text-anchor="middle">7.8</text>
</svg>