<svg xmlns="http://www.w3.org/2000/svg" width="920" height="520" viewBox="0 0 920 520"><style>text{font-family:Arial,Helvetica,sans-serif;fill:#27313f}.title{font-size:24px;font-weight:700}.label{font-size:13px}.small{font-size:11px;fill:#566474}.axis{stroke:#8d99a8;stroke-width:1}.grid{stroke:#d9dee7;stroke-width:1}</style>
<text x="32.0" y="38.0" class="title" text-anchor="start">Monte Carlo baseline loss distribution</text>
<line x1="86" y1="422.0" x2="878" y2="422.0" class="grid"/>
<text x="76.0" y="426.0" class="small" text-anchor="end">0.00</text>
<line x1="86" y1="334.0" x2="878" y2="334.0" class="grid"/>
<text x="76.0" y="338.0" class="small" text-anchor="end">342.90</text>
<line x1="86" y1="246.0" x2="878" y2="246.0" class="grid"/>
<text x="76.0" y="250.0" class="small" text-anchor="end">685.80</text>
<line x1="86" y1="158.0" x2="878" y2="158.0" class="grid"/>
<text x="76.0" y="162.0" class="small" text-anchor="end">1028.70</text>
<line x1="86" y1="70.0" x2="878" y2="70.0" class="grid"/>
<text x="76.0" y="74.0" class="small" text-anchor="end">1371.60</text>
<line x1="86" y1="70" x2="86" y2="422" class="axis"/>
<line x1="86" y1="422" x2="878" y2="422" class="axis"/>
<rect x="86.0" y="421.5" width="10.9" height="0.5" rx="4" fill="#5a7f3b"/>
<text x="91.5" y="413.5" class="small" text-anchor="middle">2.00</text>
<text x="91.5" y="448.0" class="small" text-anchor="middle">5.5</text>
<rect x="114.9" y="421.7" width="10.9" height="0.3" rx="4" fill="#5a7f3b"/>
<text x="120.4" y="413.7" class="small" text-anchor="middle">1.00</text>
<text x="120.4" y="448.0" class="small" text-anchor="middle">5.6</text>
<rect x="143.9" y="420.7" width="10.9" height="1.3" rx="4" fill="#5a7f3b"/>
<text x="149.3" y="412.7" class="small" text-anchor="middle">5.00</text>
<text x="149.3" y="448.0" class="small" text-anchor="middle">5.7</text>
<rect x="172.8" y="416.6" width="10.9" height="5.4" rx="4" fill="#5a7f3b"/>
<text x="178.2" y="408.6" class="small" text-anchor="middle">21.00</text>
<text x="178.2" y="448.0" class="small" text-anchor="middle">5.7</text>
<rect x="201.7" y="413.8" width="10.9" height="8.2" rx="4" fill="#5a7f3b"/>
<text x="207.2" y="405.8" class="small" text-anchor="middle">32.00</text>
<text x="207.2" y="448.0" class="small" text-anchor="middle">5.8</text>
<rect x="230.6" y="402.0" width="10.9" height="20.0" rx="4" fill="#5a7f3b"/>
<text x="236.1" y="394.0" class="small" text-anchor="middle">78.00</text>
<text x="236.1" y="448.0" class="small" text-anchor="middle">5.9</text>
<rect x="259.6" y="383.0" width="10.9" height="39.0" rx="4" fill="#5a7f3b"/>
<text x="265.0" y="375.0" class="small" text-anchor="middle">152.00</text>
<text x="265.0" y="448.0" class="small" text-anchor="middle">6.0</text>
<rect x="288.5" y="353.5" width="10.9" height="68.5" rx="4" fill="#5a7f3b"/>
<text x="294.0" y="345.5" class="small" text-anchor="middle">267.00</text>
<text x="294.0" y="448.0" class="small" text-anchor="middle">6.1</text>
<rect x="317.4" y="320.9" width="10.9" height="101.1" rx="4" fill="#5a7f3b"/>
<text x="322.9" y="312.9" class="small" text-anchor="middle">394.00</text>
<text x="322.9" y="448.0" class="small" text-anchor="middle">6.2</text>
<rect x="346.4" y="274.2" width="10.9" height="147.8" rx="4" fill="#5a7f3b"/>
<text x="351.8" y="266.2" class="small" text-anchor="middle">576.00</text>
<text x="351.8" y="448.0" class="small" text-anchor="middle">6.3</text>
<rect x="375.3" y="242.4" width="10.9" height="179.6" rx="4" fill="#5a7f3b"/>
<text x="380.8" y="234.4" class="small" text-anchor="middle">700.00</text>
<text x="380.8" y="448.0" class="small" text-anchor="middle">6.3</text>
<rect x="404.2" y="175.1" width="10.9" height="246.9" rx="4" fill="#5a7f3b"/>
<text x="409.7" y="167.1" class="small" text-anchor="middle">962.00</text>
<text x="409.7" y="448.0" class="small" text-anchor="middle">6.4</text>
<rect x="433.1" y="162.8" width="10.9" height="259.2" rx="4" fill="#5a7f3b"/>
<text x="438.6" y="154.8" class="small" text-anchor="middle">1010.00</text>
<text x="438.6" y="448.0" class="small" text-anchor="middle">6.5</text>
<rect x="462.1" y="128.7" width="10.9" height="293.3" rx="4" fill="#5a7f3b"/>
<text x="467.5" y="120.7" class="small" text-anchor="middle">1143.00</text>
<text x="467.5" y="448.0" class="small" text-anchor="middle">6.6</text>
<rect x="491.0" y="147.4" width="10.9" height="274.6" rx="4" fill="#5a7f3b"/>
<text x="496.5" y="139.4" class="small" text-anchor="middle">1070.00</text>
<text x="496.5" y="448.0" class="small" text-anchor="middle">6.7</text>
<rect x="519.9" y="180.5" width="10.9" height="241.5" rx="4" fill="#5a7f3b"/>
<text x="525.4" y="172.5" class="small" text-anchor="middle">941.00</text>
<text x="525.4" y="448.0" class="small" text-anchor="middle">6.8</text>
<rect x="548.9" y="212.6" width="10.9" height="209.4" rx="4" fill="#5a7f3b"/>
<text x="554.3" y="204.6" class="small" text-anchor="middle">816.00</text>
<text x="554.3" y="448.0" class="small" text-anchor="middle">6.9</text>
<rect x="577.8" y="261.6" width="10.9" height="160.4" rx="4" fill="#5a7f3b"/>
<text x="583.2" y="253.6" class="small" text-anchor="middle">625.00</text>
<text x="583.2" y="448.0" class="small" text-anchor="middle">6.9</text>
<rect x="606.7" y="304.2" width="10.9" height="117.8" rx="4" fill="#5a7f3b"/>
<text x="612.2" y="296.2" class="small" text-anchor="middle">459.00</text>
<text x="612.2" y="448.0" class="small" text-anchor="middle">7.0</text>
<rect x="635.6" y="343.2" width="10.9" height="78.8" rx="4" fill="#5a7f3b"/>
<text x="641.1" y="335.2" class="small" text-anchor="middle">307.00</text>
<text x="641.1" y="448.0" class="small" text-anchor="middle">7.1</text>
<rect x="664.6" y="371.4" width="10.9" height="50.6" rx="4" fill="#5a7f3b"/>
<text x="670.0" y="363.4" class="small" text-anchor="middle">197.00</text>
<text x="670.0" y="448.0" class="small" text-anchor="middle">7.2</text>
<rect x="693.5" y="393.3" width="10.9" height="28.7" rx="4" fill="#5a7f3b"/>
<text x="699.0" y="385.3" class="small" text-anchor="middle">112.00</text>
<text x="699.0" y="448.0" class="small" text-anchor="middle">7.3</text>
<rect x="722.4" y="406.1" width="10.9" height="15.9" rx="4" fill="#5a7f3b"/>
<text x="727.9" y="398.1" class="small" text-anchor="middle">62.00</text>
<text x="727.9" y="448.0" class="small" text-anchor="middle">7.4</text>
<rect x="751.4" y="413.8" width="10.9" height="8.2" rx="4" fill="#5a7f3b"/>
<text x="756.8" y="405.8" class="small" text-anchor="middle">32.00</text>
<text x="756.8" y="448.0" class="small" text-anchor="middle">7.5</text>
<rect x="780.3" y="416.9" width="10.9" height="5.1" rx="4" fill="#5a7f3b"/>
<text x="785.8" y="408.9" class="small" text-anchor="middle">20.00</text>
<text x="785.8" y="448.0" class="small" text-anchor="middle">7.6</text>
<rect x="809.2" y="418.7" width="10.9" height="3.3" rx="4" fill="#5a7f3b"/>
<text x="814.7" y="410.7" class="small" text-anchor="middle">13.00</text>
<text x="814.7" y="448.0" class="small" text-anchor="middle">7.6</text>
<rect x="838.1" y="421.5" width="10.9" height="0.5" rx="4" fill="#5a7f3b"/>
<text x="843.6" y="413.5" class="small" text-anchor="middle">2.00</text>
<text x="843.6" y="448.0" class="small" text-anchor="middle">7.7</text>
<rect x="867.1" y="421.7" width="10.9" height="0.3" rx="4" fill="#5a7f3b"/>
<text x="872.5" y="413.7" class="small" text-anchor="middle">1.00</text>
<text x="872.5" y="448.0" class="small" text-anchor="middle">7.8</text>
</svg>