<svg xmlns="http://www.w3.org/2000/svg" width="940" height="540" viewBox="0 0 940 540"><style>text{font-family:Arial,Helvetica,sans-serif;fill:#27313f}.title{font-size:24px;font-weight:700}.label{font-size:13px}.small{font-size:11px;fill:#566474}.axis{stroke:#8d99a8;stroke-width:1}.grid{stroke:#d9dee7;stroke-width:1}</style>
<text x="32.0" y="38.0" class="title" text-anchor="start">Predicted and observed default by risk band</text>
<rect x="660" y="24" width="14" height="14" fill="#2474a6"/>
<text x="682.0" y="36.0" class="small" text-anchor="start">Predicted PD</text>
<rect x="790" y="24" width="14" height="14" fill="#d95f36"/>
<text x="812.0" y="36.0" class="small" text-anchor="start">Observed rate</text>
<line x1="86" y1="444.0" x2="894" y2="444.0" class="grid"/>
<text x="76.0" y="448.0" class="small" text-anchor="end">0.00</text>
<line x1="86" y1="352.5" x2="894" y2="352.5" class="grid"/>
<text x="76.0" y="356.5" class="small" text-anchor="end">0.12</text>
<line x1="86" y1="261.0" x2="894" y2="261.0" class="grid"/>
<text x="76.0" y="265.0" class="small" text-anchor="end">0.25</text>
<line x1="86" y1="169.5" x2="894" y2="169.5" class="grid"/>
<text x="76.0" y="173.5" class="small" text-anchor="end">0.37</text>
<line x1="86" y1="78.0" x2="894" y2="78.0" class="grid"/>
<text x="76.0" y="82.0" class="small" text-anchor="end">0.50</text>
<line x1="86" y1="444" x2="894" y2="444" class="axis"/>
<rect x="86.0" y="433.3" width="55.7" height="10.7" rx="4" fill="#2474a6"/>
<rect x="146.7" y="433.7" width="55.7" height="10.3" rx="4" fill="#d95f36"/>
<text x="155.6" y="470.0" class="small" text-anchor="middle">A</text>
<rect x="253.2" y="418.4" width="55.7" height="25.6" rx="4" fill="#2474a6"/>
<rect x="313.9" y="419.9" width="55.7" height="24.1" rx="4" fill="#d95f36"/>
<text x="322.8" y="470.0" class="small" text-anchor="middle">B</text>
<rect x="420.4" y="393.9" width="55.7" height="50.1" rx="4" fill="#2474a6"/>
<rect x="481.1" y="390.0" width="55.7" height="54.0" rx="4" fill="#d95f36"/>
<text x="490.0" y="470.0" class="small" text-anchor="middle">C</text>
<rect x="587.6" y="338.6" width="55.7" height="105.4" rx="4" fill="#2474a6"/>
<rect x="648.3" y="340.7" width="55.7" height="103.3" rx="4" fill="#d95f36"/>
<text x="657.2" y="470.0" class="small" text-anchor="middle">D</text>
<rect x="754.8" y="144.0" width="55.7" height="300.0" rx="4" fill="#2474a6"/>
<rect x="815.5" y="152.4" width="55.7" height="291.6" rx="4" fill="#d95f36"/>
<text x="824.4" y="470.0" class="small" text-anchor="middle">E</text>
</svg>