<svg xmlns="http://www.w3.org/2000/svg" width="940" height="540" viewBox="0 0 940 540"><style>text{font-family:Arial,Helvetica,sans-serif;fill:#27313f}.title{font-size:24px;font-weight:700}.label{font-size:13px}.axis-title{font-size:13px;font-weight:700;fill:#344052}.small{font-size:11px;fill:#566474}.axis{stroke:#8d99a8;stroke-width:1}.grid{stroke:#d9dee7;stroke-width:1}</style>
<text x="32.0" y="38.0" class="title" text-anchor="start">Predicted and observed default by risk band</text>
<rect x="660" y="24" width="14" height="14" fill="#2474a6"/>
<text x="682.0" y="36.0" class="small" text-anchor="start">Predicted PD</text>
<rect x="790" y="24" width="14" height="14" fill="#d95f36"/>
<text x="812.0" y="36.0" class="small" text-anchor="start">Observed rate</text>
<line x1="96" y1="424.0" x2="894" y2="424.0" class="grid"/>
<text x="86.0" y="428.0" class="small" text-anchor="end">0.00</text>
<line x1="96" y1="337.5" x2="894" y2="337.5" class="grid"/>
<text x="86.0" y="341.5" class="small" text-anchor="end">0.12</text>
<line x1="96" y1="251.0" x2="894" y2="251.0" class="grid"/>
<text x="86.0" y="255.0" class="small" text-anchor="end">0.25</text>
<line x1="96" y1="164.5" x2="894" y2="164.5" class="grid"/>
<text x="86.0" y="168.5" class="small" text-anchor="end">0.37</text>
<line x1="96" y1="78.0" x2="894" y2="78.0" class="grid"/>
<text x="86.0" y="82.0" class="small" text-anchor="end">0.50</text>
<line x1="96" y1="424" x2="894" y2="424" class="axis"/>
<text x="24.0" y="251.0" class="axis-title" text-anchor="middle" transform="rotate(-90 24.0 251.0)">Default rate</text>
<text x="495.0" y="512.0" class="axis-title" text-anchor="middle">Risk band</text>
<rect x="96.0" y="413.9" width="54.9" height="10.1" rx="4" fill="#2474a6"/>
<rect x="155.9" y="414.2" width="54.9" height="9.8" rx="4" fill="#d95f36"/>
<text x="164.6" y="450.0" class="small" text-anchor="middle">A</text>
<rect x="261.2" y="399.8" width="54.9" height="24.2" rx="4" fill="#2474a6"/>
<rect x="321.1" y="401.2" width="54.9" height="22.8" rx="4" fill="#d95f36"/>
<text x="329.8" y="450.0" class="small" text-anchor="middle">B</text>
<rect x="426.4" y="376.6" width="54.9" height="47.4" rx="4" fill="#2474a6"/>
<rect x="486.3" y="373.0" width="54.9" height="51.0" rx="4" fill="#d95f36"/>
<text x="495.0" y="450.0" class="small" text-anchor="middle">C</text>
<rect x="591.6" y="324.3" width="54.9" height="99.7" rx="4" fill="#2474a6"/>
<rect x="651.5" y="326.3" width="54.9" height="97.7" rx="4" fill="#d95f36"/>
<text x="660.2" y="450.0" class="small" text-anchor="middle">D</text>
<rect x="756.8" y="140.4" width="54.9" height="283.6" rx="4" fill="#2474a6"/>
<rect x="816.7" y="148.3" width="54.9" height="275.7" rx="4" fill="#d95f36"/>
<text x="825.4" y="450.0" class="small" text-anchor="middle">E</text>
</svg>