<svg xmlns="http://www.w3.org/2000/svg" width="900" height="520" viewBox="0 0 900 520"><style>text{font-family:Arial,Helvetica,sans-serif;fill:#27313f}.title{font-size:24px;font-weight:700}.label{font-size:13px}.small{font-size:11px;fill:#566474}.axis{stroke:#8d99a8;stroke-width:1}.grid{stroke:#d9dee7;stroke-width:1}</style>
<text x="32.0" y="38.0" class="title" text-anchor="start">ROC curve for selected model</text>
<line x1="74.0" y1="70" x2="74.0" y2="448" class="grid"/>
<line x1="74" y1="448.0" x2="856" y2="448.0" class="grid"/>
<text x="74.0" y="472.0" class="small" text-anchor="middle">0.0</text>
<text x="62.0" y="452.0" class="small" text-anchor="end">0.0</text>
<line x1="230.4" y1="70" x2="230.4" y2="448" class="grid"/>
<line x1="74" y1="372.4" x2="856" y2="372.4" class="grid"/>
<text x="230.4" y="472.0" class="small" text-anchor="middle">0.2</text>
<text x="62.0" y="376.4" class="small" text-anchor="end">0.2</text>
<line x1="386.8" y1="70" x2="386.8" y2="448" class="grid"/>
<line x1="74" y1="296.8" x2="856" y2="296.8" class="grid"/>
<text x="386.8" y="472.0" class="small" text-anchor="middle">0.4</text>
<text x="62.0" y="300.8" class="small" text-anchor="end">0.4</text>
<line x1="543.2" y1="70" x2="543.2" y2="448" class="grid"/>
<line x1="74" y1="221.2" x2="856" y2="221.2" class="grid"/>
<text x="543.2" y="472.0" class="small" text-anchor="middle">0.6</text>
<text x="62.0" y="225.2" class="small" text-anchor="end">0.6</text>
<line x1="699.6" y1="70" x2="699.6" y2="448" class="grid"/>
<line x1="74" y1="145.6" x2="856" y2="145.6" class="grid"/>
<text x="699.6" y="472.0" class="small" text-anchor="middle">0.8</text>
<text x="62.0" y="149.6" class="small" text-anchor="end">0.8</text>
<line x1="856.0" y1="70" x2="856.0" y2="448" class="grid"/>
<line x1="74" y1="70.0" x2="856" y2="70.0" class="grid"/>
<text x="856.0" y="472.0" class="small" text-anchor="middle">1.0</text>
<text x="62.0" y="74.0" class="small" text-anchor="end">1.0</text>
<line x1="74" y1="448" x2="856" y2="70" stroke="#8996a3" stroke-width="2" stroke-dasharray="6 5"/>
<polyline fill="none" stroke="#2474a6" stroke-width="3" points="74.0,448.0 74.0,445.1 74.0,442.1 74.0,439.2 74.0,436.3 74.0,433.3 74.0,430.4 74.9,430.4 74.9,427.5 74.9,424.6 75.9,424.6 75.9,421.6 76.8,421.6 76.8,418.7 76.8,415.8 76.8,412.8 77.8,412.8 77.8,409.9 77.8,407.0 77.8,404.0 77.8,401.1 77.8,398.2 77.8,395.3 77.8,392.3 78.7,392.3 79.6,392.3 79.6,389.4 79.6,386.5 80.6,386.5 80.6,383.5 81.5,383.5 82.5,383.5 83.4,383.5 83.4,380.6 83.4,377.7 83.4,374.7 83.4,371.8 84.4,371.8 85.3,371.8 86.2,371.8 87.2,371.8 88.1,371.8 88.1,368.9 88.1,366.0 88.1,363.0 89.1,363.0 89.1,360.1 89.1,357.2 89.1,354.2 89.1,351.3 89.1,348.4 90.0,348.4 90.9,348.4 90.9,345.4 90.9,342.5 90.9,339.6 91.9,339.6 91.9,336.7 92.8,336.7 93.8,336.7 94.7,336.7 95.6,336.7 95.6,333.7 96.6,333.7 96.6,330.8 97.5,330.8 98.5,330.8 99.4,330.8 100.3,330.8 101.3,330.8 102.2,330.8 103.2,330.8 103.2,327.9 103.2,324.9 104.1,324.9 105.1,324.9 105.1,322.0 106.0,322.0 106.9,322.0 107.9,322.0 107.9,319.1 108.8,319.1 109.8,319.1 110.7,319.1 110.7,316.1 110.7,313.2 110.7,310.3 110.7,307.3 110.7,304.4 110.7,301.5 110.7,298.6 111.6,298.6 111.6,295.6 112.6,295.6 113.5,295.6 113.5,292.7 114.5,292.7 115.4,292.7 116.3,292.7 116.3,289.8 117.3,289.8 118.2,289.8 119.2,289.8 120.1,289.8 121.1,289.8 122.0,289.8 122.9,289.8 123.9,289.8 124.8,289.8 125.8,289.8 126.7,289.8 126.7,286.8 127.6,286.8 128.6,286.8 129.5,286.8 129.5,283.9 130.5,283.9 130.5,281.0 131.4,281.0 132.3,281.0 133.3,281.0 134.2,281.0 135.2,281.0 135.2,278.0 136.1,278.0 137.0,278.0 138.0,278.0 138.9,278.0 139.9,278.0 140.8,278.0 140.8,275.1 140.8,272.2 141.8,272.2 142.7,272.2 143.6,272.2 143.6,269.3 143.6,266.3 143.6,263.4 144.6,263.4 145.5,263.4 146.5,263.4 147.4,263.4 148.3,263.4 149.3,263.4 150.2,263.4 151.2,263.4 151.2,260.5 152.1,260.5 153.0,260.5 154.0,260.5 154.9,260.5 155.9,260.5 156.8,260.5 157.8,260.5 158.7,260.5 158.7,257.5 159.6,257.5 160.6,257.5 161.5,257.5 162.5,257.5 163.4,257.5 164.3,257.5 165.3,257.5 166.2,257.5 166.2,254.6 167.2,254.6 168.1,254.6 169.0,254.6 170.0,254.6 170.9,254.6 171.9,254.6 172.8,254.6 173.7,254.6 174.7,254.6 175.6,254.6 175.6,251.7 176.6,251.7 176.6,248.7 177.5,248.7 178.5,248.7 178.5,245.8 179.4,245.8 179.4,242.9 180.3,242.9 181.3,242.9 182.2,242.9 182.2,240.0 183.2,240.0 184.1,240.0 185.0,240.0 186.0,240.0 186.9,240.0 187.9,240.0 188.8,240.0 189.7,240.0 190.7,240.0 191.6,240.0 192.6,240.0 193.5,240.0 194.5,240.0 195.4,240.0 196.3,240.0 197.3,240.0 197.3,237.0 197.3,234.1 198.2,234.1 199.2,234.1 200.1,234.1 201.0,234.1 201.0,231.2 201.0,228.2 202.0,228.2 202.9,228.2 203.9,228.2 204.8,228.2 204.8,225.3 205.7,225.3 206.7,225.3 207.6,225.3 208.6,225.3 209.5,225.3 210.5,225.3 211.4,225.3 212.3,225.3 213.3,225.3 214.2,225.3 215.2,225.3 216.1,225.3 217.0,225.3 218.0,225.3 218.0,222.4 218.9,222.4 219.9,222.4 219.9,219.4 220.8,219.4 221.7,219.4 222.7,219.4 223.6,219.4 224.6,219.4 224.6,216.5 225.5,216.5 226.4,216.5 227.4,216.5 228.3,216.5 228.3,213.6 229.3,213.6 230.2,213.6 231.2,213.6 232.1,213.6 233.0,213.6 234.0,213.6 234.9,213.6 235.9,213.6 235.9,210.7 236.8,210.7 237.7,210.7 238.7,210.7 239.6,210.7 240.6,210.7 241.5,210.7 242.4,210.7 243.4,210.7 244.3,210.7 245.3,210.7 245.3,207.7 246.2,207.7 246.2,204.8 247.2,204.8 247.2,201.9 248.1,201.9 249.0,201.9 249.0,198.9 250.0,198.9 250.9,198.9 251.9,198.9 252.8,198.9 253.7,198.9 254.7,198.9 255.6,198.9 256.6,198.9 257.5,198.9 258.4,198.9 259.4,198.9 260.3,198.9 261.3,198.9 261.3,196.0 262.2,196.0 263.1,196.0 264.1,196.0 265.0,196.0 266.0,196.0 266.9,196.0 267.9,196.0 268.8,196.0 269.7,196.0 270.7,196.0 271.6,196.0 271.6,193.1 272.6,193.1 273.5,193.1 274.4,193.1 275.4,193.1 276.3,193.1 277.3,193.1 277.3,190.1 278.2,190.1 279.1,190.1 280.1,190.1 281.0,190.1 281.0,187.2 281.0,184.3 282.0,184.3 282.9,184.3 283.9,184.3 284.8,184.3 285.7,184.3 286.7,184.3 287.6,184.3 288.6,184.3 289.5,184.3 290.4,184.3 291.4,184.3 292.3,184.3 293.3,184.3 293.3,181.3 294.2,181.3 295.1,181.3 296.1,181.3 296.1,178.4 296.1,175.5 296.1,172.6 297.0,172.6 298.0,172.6 298.9,172.6 299.8,172.6 300.8,172.6 301.7,172.6 302.7,172.6 303.6,172.6 304.6,172.6 305.5,172.6 305.5,169.6 306.4,169.6 307.4,169.6 308.3,169.6 308.3,166.7 309.3,166.7 310.2,166.7 311.1,166.7 312.1,166.7 313.0,166.7 314.0,166.7 314.0,163.8 314.0,160.8 314.9,160.8 315.8,160.8 316.8,160.8 317.7,160.8 318.7,160.8 319.6,160.8 319.6,157.9 320.6,157.9 320.6,155.0 321.5,155.0 322.4,155.0 323.4,155.0 324.3,155.0 324.3,152.0 325.3,152.0 326.2,152.0 327.1,152.0 328.1,152.0 328.1,149.1 329.0,149.1 330.0,149.1 330.9,149.1 331.8,149.1 332.8,149.1 333.7,149.1 334.7,149.1 335.6,149.1 335.6,146.2 336.5,146.2 337.5,146.2 337.5,143.3 338.4,143.3 338.4,140.3 339.4,140.3 340.3,140.3 341.3,140.3 342.2,140.3 343.1,140.3 343.1,137.4 344.1,137.4 345.0,137.4 346.0,137.4 346.9,137.4 347.8,137.4 348.8,137.4 348.8,134.5 349.7,134.5 350.7,134.5 351.6,134.5 351.6,131.5 352.5,131.5 353.5,131.5 354.4,131.5 355.4,131.5 356.3,131.5 357.3,131.5 358.2,131.5 359.1,131.5 360.1,131.5 361.0,131.5 362.0,131.5 362.0,128.6 362.9,128.6 363.8,128.6 364.8,128.6 365.7,128.6 366.7,128.6 367.6,128.6 368.5,128.6 369.5,128.6 370.4,128.6 371.4,128.6 372.3,128.6 373.2,128.6 374.2,128.6 375.1,128.6 376.1,128.6 377.0,128.6 377.0,125.7 378.0,125.7 378.9,125.7 379.8,125.7 380.8,125.7 381.7,125.7 382.7,125.7 383.6,125.7 384.5,125.7 385.5,125.7 386.4,125.7 387.4,125.7 388.3,125.7 389.2,125.7 390.2,125.7 391.1,125.7 391.1,122.7 392.1,122.7 393.0,122.7 394.0,122.7 394.9,122.7 395.8,122.7 396.8,122.7 397.7,122.7 398.7,122.7 399.6,122.7 400.5,122.7 401.5,122.7 402.4,122.7 402.4,119.8 403.4,119.8 404.3,119.8 405.2,119.8 406.2,119.8 407.1,119.8 408.1,119.8 409.0,119.8 409.9,119.8 410.9,119.8 411.8,119.8 412.8,119.8 413.7,119.8 413.7,116.9 414.7,116.9 415.6,116.9 416.5,116.9 417.5,116.9 418.4,116.9 419.4,116.9 420.3,116.9 421.2,116.9 422.2,116.9 423.1,116.9 423.1,114.0 424.1,114.0 425.0,114.0 425.9,114.0 426.9,114.0 427.8,114.0 428.8,114.0 429.7,114.0 430.7,114.0 431.6,114.0 432.5,114.0 433.5,114.0 434.4,114.0 435.4,114.0 436.3,114.0 437.2,114.0 438.2,114.0 439.1,114.0 440.1,114.0 440.1,111.0 441.0,111.0 441.9,111.0 442.9,111.0 443.8,111.0 444.8,111.0 444.8,108.1 445.7,108.1 446.6,108.1 447.6,108.1 448.5,108.1 449.5,108.1 450.4,108.1 451.4,108.1 452.3,108.1 453.2,108.1 454.2,108.1 455.1,108.1 456.1,108.1 457.0,108.1 457.9,108.1 458.9,108.1 459.8,108.1 459.8,105.2 460.8,105.2 461.7,105.2 462.6,105.2 462.6,102.2 463.6,102.2 463.6,99.3 464.5,99.3 465.5,99.3 466.4,99.3 467.4,99.3 468.3,99.3 469.2,99.3 470.2,99.3 471.1,99.3 472.1,99.3 473.0,99.3 473.9,99.3 474.9,99.3 475.8,99.3 476.8,99.3 477.7,99.3 478.6,99.3 479.6,99.3 480.5,99.3 481.5,99.3 482.4,99.3 482.4,96.4 483.4,96.4 484.3,96.4 485.2,96.4 486.2,96.4 487.1,96.4 488.1,96.4 489.0,96.4 489.9,96.4 490.9,96.4 491.8,96.4 492.8,96.4 493.7,96.4 494.6,96.4 494.6,93.4 495.6,93.4 496.5,93.4 497.5,93.4 498.4,93.4 499.3,93.4 500.3,93.4 501.2,93.4 502.2,93.4 503.1,93.4 504.1,93.4 505.0,93.4 505.9,93.4 506.9,93.4 507.8,93.4 508.8,93.4 509.7,93.4 510.6,93.4 511.6,93.4 512.5,93.4 513.5,93.4 514.4,93.4 515.3,93.4 516.3,93.4 517.2,93.4 518.2,93.4 519.1,93.4 520.1,93.4 521.0,93.4 521.9,93.4 522.9,93.4 523.8,93.4 524.8,93.4 525.7,93.4 526.6,93.4 527.6,93.4 528.5,93.4 529.5,93.4 530.4,93.4 531.3,93.4 532.3,93.4 533.2,93.4 534.2,93.4 535.1,93.4 536.0,93.4 537.0,93.4 537.9,93.4 537.9,90.5 538.9,90.5 539.8,90.5 540.8,90.5 541.7,90.5 542.6,90.5 543.6,90.5 544.5,90.5 545.5,90.5 546.4,90.5 547.3,90.5 548.3,90.5 549.2,90.5 550.2,90.5 551.1,90.5 552.0,90.5 553.0,90.5 553.9,90.5 554.9,90.5 555.8,90.5 556.8,90.5 556.8,87.6 557.7,87.6 558.6,87.6 559.6,87.6 560.5,87.6 561.5,87.6 562.4,87.6 563.3,87.6 564.3,87.6 565.2,87.6 566.2,87.6 567.1,87.6 568.0,87.6 569.0,87.6 569.9,87.6 570.9,87.6 571.8,87.6 572.7,87.6 573.7,87.6 574.6,87.6 575.6,87.6 576.5,87.6 577.5,87.6 578.4,87.6 579.3,87.6 580.3,87.6 581.2,87.6 582.2,87.6 583.1,87.6 584.0,87.6 585.0,87.6 585.9,87.6 586.9,87.6 587.8,87.6 588.7,87.6 589.7,87.6 590.6,87.6 591.6,87.6 592.5,87.6 593.5,87.6 594.4,87.6 595.3,87.6 596.3,87.6 597.2,87.6 598.2,87.6 599.1,87.6 600.0,87.6 601.0,87.6 601.9,87.6 602.9,87.6 603.8,87.6 604.7,87.6 605.7,87.6 606.6,87.6 607.6,87.6 608.5,87.6 609.4,87.6 610.4,87.6 611.3,87.6 612.3,87.6 613.2,87.6 614.2,87.6 615.1,87.6 616.0,87.6 617.0,87.6 617.9,87.6 618.9,87.6 619.8,87.6 620.7,87.6 621.7,87.6 622.6,87.6 623.6,87.6 624.5,87.6 625.4,87.6 626.4,87.6 627.3,87.6 628.3,87.6 629.2,87.6 630.2,87.6 631.1,87.6 632.0,87.6 633.0,87.6 633.9,87.6 633.9,84.7 634.9,84.7 635.8,84.7 636.7,84.7 637.7,84.7 638.6,84.7 639.6,84.7 640.5,84.7 641.4,84.7 642.4,84.7 643.3,84.7 644.3,84.7 645.2,84.7 646.1,84.7 647.1,84.7 648.0,84.7 649.0,84.7 649.0,81.7 649.0,78.8 649.9,78.8 650.9,78.8 651.8,78.8 652.7,78.8 653.7,78.8 654.6,78.8 655.6,78.8 656.5,78.8 657.4,78.8 658.4,78.8 659.3,78.8 660.3,78.8 661.2,78.8 662.1,78.8 663.1,78.8 664.0,78.8 665.0,78.8 665.9,78.8 666.9,78.8 667.8,78.8 668.7,78.8 669.7,78.8 670.6,78.8 671.6,78.8 672.5,78.8 673.4,78.8 674.4,78.8 675.3,78.8 676.3,78.8 677.2,78.8 678.1,78.8 679.1,78.8 680.0,78.8 681.0,78.8 681.9,78.8 682.8,78.8 683.8,78.8 684.7,78.8 685.7,78.8 686.6,78.8 687.6,78.8 688.5,78.8 689.4,78.8 690.4,78.8 691.3,78.8 692.3,78.8 693.2,78.8 694.1,78.8 695.1,78.8 696.0,78.8 697.0,78.8 697.9,78.8 698.8,78.8 699.8,78.8 700.7,78.8 701.7,78.8 702.6,78.8 703.6,78.8 703.6,75.9 704.5,75.9 705.4,75.9 706.4,75.9 707.3,75.9 708.3,75.9 709.2,75.9 710.1,75.9 711.1,75.9 712.0,75.9 712.0,72.9 713.0,72.9 713.9,72.9 714.8,72.9 715.8,72.9 716.7,72.9 717.7,72.9 718.6,72.9 719.5,72.9 720.5,72.9 721.4,72.9 722.4,72.9 723.3,72.9 724.3,72.9 725.2,72.9 726.1,72.9 727.1,72.9 728.0,72.9 729.0,72.9 729.9,72.9 730.8,72.9 731.8,72.9 732.7,72.9 733.7,72.9 734.6,72.9 735.5,72.9 736.5,72.9 737.4,72.9 738.4,72.9 739.3,72.9 740.3,72.9 741.2,72.9 742.1,72.9 743.1,72.9 744.0,72.9 745.0,72.9 745.0,70.0 745.9,70.0 746.8,70.0 747.8,70.0 748.7,70.0 749.7,70.0 750.6,70.0 751.5,70.0 752.5,70.0 753.4,70.0 754.4,70.0 755.3,70.0 756.3,70.0 757.2,70.0 758.1,70.0 759.1,70.0 760.0,70.0 761.0,70.0 761.9,70.0 762.8,70.0 763.8,70.0 764.7,70.0 765.7,70.0 766.6,70.0 767.5,70.0 768.5,70.0 769.4,70.0 770.4,70.0 771.3,70.0 772.2,70.0 773.2,70.0 774.1,70.0 775.1,70.0 776.0,70.0 777.0,70.0 777.9,70.0 778.8,70.0 779.8,70.0 780.7,70.0 781.7,70.0 782.6,70.0 783.5,70.0 784.5,70.0 785.4,70.0 786.4,70.0 787.3,70.0 788.2,70.0 789.2,70.0 790.1,70.0 791.1,70.0 792.0,70.0 793.0,70.0 793.9,70.0 794.8,70.0 795.8,70.0 796.7,70.0 797.7,70.0 798.6,70.0 799.5,70.0 800.5,70.0 801.4,70.0 802.4,70.0 803.3,70.0 804.2,70.0 805.2,70.0 806.1,70.0 807.1,70.0 808.0,70.0 808.9,70.0 809.9,70.0 810.8,70.0 811.8,70.0 812.7,70.0 813.7,70.0 814.6,70.0 815.5,70.0 816.5,70.0 817.4,70.0 818.4,70.0 819.3,70.0 820.2,70.0 821.2,70.0 822.1,70.0 823.1,70.0 824.0,70.0 824.9,70.0 825.9,70.0 826.8,70.0 827.8,70.0 828.7,70.0 829.7,70.0 830.6,70.0 831.5,70.0 832.5,70.0 833.4,70.0 834.4,70.0 835.3,70.0 836.2,70.0 837.2,70.0 838.1,70.0 839.1,70.0 840.0,70.0 840.9,70.0 841.9,70.0 842.8,70.0 843.8,70.0 844.7,70.0 845.6,70.0 846.6,70.0 847.5,70.0 848.5,70.0 849.4,70.0 850.4,70.0 851.3,70.0 852.2,70.0 853.2,70.0 854.1,70.0 855.1,70.0 856.0,70.0 856.0,70.0"/>
<circle cx="74.0" cy="448.0" r="3" fill="#2474a6"/>
<circle cx="107.9" cy="319.1" r="3" fill="#2474a6"/>
<circle cx="163.4" cy="257.5" r="3" fill="#2474a6"/>
<circle cx="225.5" cy="216.5" r="3" fill="#2474a6"/>
<circle cx="290.4" cy="184.3" r="3" fill="#2474a6"/>
<circle cx="349.7" cy="134.5" r="3" fill="#2474a6"/>
<circle cx="419.4" cy="116.9" r="3" fill="#2474a6"/>
<circle cx="488.1" cy="96.4" r="3" fill="#2474a6"/>
<circle cx="560.5" cy="87.6" r="3" fill="#2474a6"/>
<circle cx="634.9" cy="84.7" r="3" fill="#2474a6"/>
<circle cx="707.3" cy="75.9" r="3" fill="#2474a6"/>
<circle cx="780.7" cy="70.0" r="3" fill="#2474a6"/>
<circle cx="856.0" cy="70.0" r="3" fill="#2474a6"/>
</svg>