<svg xmlns="http://www.w3.org/2000/svg" width="900" height="520" viewBox="0 0 900 520"><style>text{font-family:Arial,Helvetica,sans-serif;fill:#27313f}.title{font-size:24px;font-weight:700}.label{font-size:13px}.axis-title{font-size:13px;font-weight:700;fill:#344052}.small{font-size:11px;fill:#566474}.axis{stroke:#8d99a8;stroke-width:1}.grid{stroke:#d9dee7;stroke-width:1}</style>
<text x="32.0" y="38.0" class="title" text-anchor="start">ROC curve for selected model</text>
<line x1="90.0" y1="70" x2="90.0" y2="424" class="grid"/>
<line x1="90" y1="424.0" x2="856" y2="424.0" class="grid"/>
<text x="90.0" y="448.0" class="small" text-anchor="middle">0.0</text>
<text x="78.0" y="428.0" class="small" text-anchor="end">0.0</text>
<line x1="243.2" y1="70" x2="243.2" y2="424" class="grid"/>
<line x1="90" y1="353.2" x2="856" y2="353.2" class="grid"/>
<text x="243.2" y="448.0" class="small" text-anchor="middle">0.2</text>
<text x="78.0" y="357.2" class="small" text-anchor="end">0.2</text>
<line x1="396.4" y1="70" x2="396.4" y2="424" class="grid"/>
<line x1="90" y1="282.4" x2="856" y2="282.4" class="grid"/>
<text x="396.4" y="448.0" class="small" text-anchor="middle">0.4</text>
<text x="78.0" y="286.4" class="small" text-anchor="end">0.4</text>
<line x1="549.6" y1="70" x2="549.6" y2="424" class="grid"/>
<line x1="90" y1="211.6" x2="856" y2="211.6" class="grid"/>
<text x="549.6" y="448.0" class="small" text-anchor="middle">0.6</text>
<text x="78.0" y="215.6" class="small" text-anchor="end">0.6</text>
<line x1="702.8" y1="70" x2="702.8" y2="424" class="grid"/>
<line x1="90" y1="140.8" x2="856" y2="140.8" class="grid"/>
<text x="702.8" y="448.0" class="small" text-anchor="middle">0.8</text>
<text x="78.0" y="144.8" class="small" text-anchor="end">0.8</text>
<line x1="856.0" y1="70" x2="856.0" y2="424" class="grid"/>
<line x1="90" y1="70.0" x2="856" y2="70.0" class="grid"/>
<text x="856.0" y="448.0" class="small" text-anchor="middle">1.0</text>
<text x="78.0" y="74.0" class="small" text-anchor="end">1.0</text>
<line x1="90" y1="424" x2="856" y2="424" class="axis"/>
<line x1="90" y1="70" x2="90" y2="424" class="axis"/>
<text x="24.0" y="247.0" class="axis-title" text-anchor="middle" transform="rotate(-90 24.0 247.0)">True positive rate</text>
<text x="473.0" y="492.0" class="axis-title" text-anchor="middle">False positive rate</text>
<line x1="90" y1="424" x2="856" y2="70" stroke="#8996a3" stroke-width="2" stroke-dasharray="6 5"/>
<polyline fill="none" stroke="#2474a6" stroke-width="3" points="90.0,424.0 90.0,421.3 90.0,418.5 90.0,415.8 90.0,413.0 90.0,410.3 90.0,407.5 90.9,407.5 90.9,404.8 90.9,402.0 91.8,402.0 91.8,399.3 92.8,399.3 92.8,396.6 92.8,393.8 92.8,391.1 93.7,391.1 93.7,388.3 93.7,385.6 93.7,382.8 93.7,380.1 93.7,377.3 93.7,374.6 93.7,371.9 94.6,371.9 95.5,371.9 95.5,369.1 95.5,366.4 96.5,366.4 96.5,363.6 97.4,363.6 98.3,363.6 99.2,363.6 99.2,360.9 99.2,358.1 99.2,355.4 99.2,352.7 100.1,352.7 101.1,352.7 102.0,352.7 102.9,352.7 103.8,352.7 103.8,349.9 103.8,347.2 103.8,344.4 104.7,344.4 104.7,341.7 104.7,338.9 104.7,336.2 104.7,333.4 104.7,330.7 105.7,330.7 106.6,330.7 106.6,328.0 106.6,325.2 106.6,322.5 107.5,322.5 107.5,319.7 108.4,319.7 109.4,319.7 110.3,319.7 111.2,319.7 111.2,317.0 112.1,317.0 112.1,314.2 113.0,314.2 114.0,314.2 114.9,314.2 115.8,314.2 116.7,314.2 117.7,314.2 118.6,314.2 118.6,311.5 118.6,308.7 119.5,308.7 120.4,308.7 120.4,306.0 121.3,306.0 122.3,306.0 123.2,306.0 123.2,303.3 124.1,303.3 125.0,303.3 125.9,303.3 125.9,300.5 125.9,297.8 125.9,295.0 125.9,292.3 125.9,289.5 125.9,286.8 125.9,284.0 126.9,284.0 126.9,281.3 127.8,281.3 128.7,281.3 128.7,278.6 129.6,278.6 130.6,278.6 131.5,278.6 131.5,275.8 132.4,275.8 133.3,275.8 134.2,275.8 135.2,275.8 136.1,275.8 137.0,275.8 137.9,275.8 138.9,275.8 139.8,275.8 140.7,275.8 141.6,275.8 141.6,273.1 142.5,273.1 143.5,273.1 144.4,273.1 144.4,270.3 145.3,270.3 145.3,267.6 146.2,267.6 147.2,267.6 148.1,267.6 149.0,267.6 149.9,267.6 149.9,264.8 150.8,264.8 151.8,264.8 152.7,264.8 153.6,264.8 154.5,264.8 155.4,264.8 155.4,262.1 155.4,259.3 156.4,259.3 157.3,259.3 158.2,259.3 158.2,256.6 158.2,253.9 158.2,251.1 159.1,251.1 160.1,251.1 161.0,251.1 161.9,251.1 162.8,251.1 163.7,251.1 164.7,251.1 165.6,251.1 165.6,248.4 166.5,248.4 167.4,248.4 168.4,248.4 169.3,248.4 170.2,248.4 171.1,248.4 172.0,248.4 173.0,248.4 173.0,245.6 173.9,245.6 174.8,245.6 175.7,245.6 176.6,245.6 177.6,245.6 178.5,245.6 179.4,245.6 180.3,245.6 180.3,242.9 181.3,242.9 182.2,242.9 183.1,242.9 184.0,242.9 184.9,242.9 185.9,242.9 186.8,242.9 187.7,242.9 188.6,242.9 189.6,242.9 189.6,240.1 190.5,240.1 190.5,237.4 191.4,237.4 192.3,237.4 192.3,234.7 193.2,234.7 193.2,231.9 194.2,231.9 195.1,231.9 196.0,231.9 196.0,229.2 196.9,229.2 197.8,229.2 198.8,229.2 199.7,229.2 200.6,229.2 201.5,229.2 202.5,229.2 203.4,229.2 204.3,229.2 205.2,229.2 206.1,229.2 207.1,229.2 208.0,229.2 208.9,229.2 209.8,229.2 210.8,229.2 210.8,226.4 210.8,223.7 211.7,223.7 212.6,223.7 213.5,223.7 214.4,223.7 214.4,220.9 214.4,218.2 215.4,218.2 216.3,218.2 217.2,218.2 218.1,218.2 218.1,215.4 219.0,215.4 220.0,215.4 220.9,215.4 221.8,215.4 222.7,215.4 223.7,215.4 224.6,215.4 225.5,215.4 226.4,215.4 227.3,215.4 228.3,215.4 229.2,215.4 230.1,215.4 231.0,215.4 231.0,212.7 232.0,212.7 232.9,212.7 232.9,210.0 233.8,210.0 234.7,210.0 235.6,210.0 236.6,210.0 237.5,210.0 237.5,207.2 238.4,207.2 239.3,207.2 240.3,207.2 241.2,207.2 241.2,204.5 242.1,204.5 243.0,204.5 243.9,204.5 244.9,204.5 245.8,204.5 246.7,204.5 247.6,204.5 248.5,204.5 248.5,201.7 249.5,201.7 250.4,201.7 251.3,201.7 252.2,201.7 253.2,201.7 254.1,201.7 255.0,201.7 255.9,201.7 256.8,201.7 257.8,201.7 257.8,199.0 258.7,199.0 258.7,196.2 259.6,196.2 259.6,193.5 260.5,193.5 261.5,193.5 261.5,190.7 262.4,190.7 263.3,190.7 264.2,190.7 265.1,190.7 266.1,190.7 267.0,190.7 267.9,190.7 268.8,190.7 269.7,190.7 270.7,190.7 271.6,190.7 272.5,190.7 273.4,190.7 273.4,188.0 274.4,188.0 275.3,188.0 276.2,188.0 277.1,188.0 278.0,188.0 279.0,188.0 279.9,188.0 280.8,188.0 281.7,188.0 282.7,188.0 283.6,188.0 283.6,185.3 284.5,185.3 285.4,185.3 286.3,185.3 287.3,185.3 288.2,185.3 289.1,185.3 289.1,182.5 290.0,182.5 290.9,182.5 291.9,182.5 292.8,182.5 292.8,179.8 292.8,177.0 293.7,177.0 294.6,177.0 295.6,177.0 296.5,177.0 297.4,177.0 298.3,177.0 299.2,177.0 300.2,177.0 301.1,177.0 302.0,177.0 302.9,177.0 303.9,177.0 304.8,177.0 304.8,174.3 305.7,174.3 306.6,174.3 307.5,174.3 307.5,171.5 307.5,168.8 307.5,166.0 308.5,166.0 309.4,166.0 310.3,166.0 311.2,166.0 312.1,166.0 313.1,166.0 314.0,166.0 314.9,166.0 315.8,166.0 316.8,166.0 316.8,163.3 317.7,163.3 318.6,163.3 319.5,163.3 319.5,160.6 320.4,160.6 321.4,160.6 322.3,160.6 323.2,160.6 324.1,160.6 325.1,160.6 325.1,157.8 325.1,155.1 326.0,155.1 326.9,155.1 327.8,155.1 328.7,155.1 329.7,155.1 330.6,155.1 330.6,152.3 331.5,152.3 331.5,149.6 332.4,149.6 333.4,149.6 334.3,149.6 335.2,149.6 335.2,146.8 336.1,146.8 337.0,146.8 338.0,146.8 338.9,146.8 338.9,144.1 339.8,144.1 340.7,144.1 341.6,144.1 342.6,144.1 343.5,144.1 344.4,144.1 345.3,144.1 346.3,144.1 346.3,141.3 347.2,141.3 348.1,141.3 348.1,138.6 349.0,138.6 349.0,135.9 349.9,135.9 350.9,135.9 351.8,135.9 352.7,135.9 353.6,135.9 353.6,133.1 354.6,133.1 355.5,133.1 356.4,133.1 357.3,133.1 358.2,133.1 359.2,133.1 359.2,130.4 360.1,130.4 361.0,130.4 361.9,130.4 361.9,127.6 362.8,127.6 363.8,127.6 364.7,127.6 365.6,127.6 366.5,127.6 367.5,127.6 368.4,127.6 369.3,127.6 370.2,127.6 371.1,127.6 372.1,127.6 372.1,124.9 373.0,124.9 373.9,124.9 374.8,124.9 375.8,124.9 376.7,124.9 377.6,124.9 378.5,124.9 379.4,124.9 380.4,124.9 381.3,124.9 382.2,124.9 383.1,124.9 384.0,124.9 385.0,124.9 385.9,124.9 386.8,124.9 386.8,122.1 387.7,122.1 388.7,122.1 389.6,122.1 390.5,122.1 391.4,122.1 392.3,122.1 393.3,122.1 394.2,122.1 395.1,122.1 396.0,122.1 397.0,122.1 397.9,122.1 398.8,122.1 399.7,122.1 400.6,122.1 400.6,119.4 401.6,119.4 402.5,119.4 403.4,119.4 404.3,119.4 405.2,119.4 406.2,119.4 407.1,119.4 408.0,119.4 408.9,119.4 409.9,119.4 410.8,119.4 411.7,119.4 411.7,116.7 412.6,116.7 413.5,116.7 414.5,116.7 415.4,116.7 416.3,116.7 417.2,116.7 418.2,116.7 419.1,116.7 420.0,116.7 420.9,116.7 421.8,116.7 422.8,116.7 422.8,113.9 423.7,113.9 424.6,113.9 425.5,113.9 426.5,113.9 427.4,113.9 428.3,113.9 429.2,113.9 430.1,113.9 431.1,113.9 432.0,113.9 432.0,111.2 432.9,111.2 433.8,111.2 434.7,111.2 435.7,111.2 436.6,111.2 437.5,111.2 438.4,111.2 439.4,111.2 440.3,111.2 441.2,111.2 442.1,111.2 443.0,111.2 444.0,111.2 444.9,111.2 445.8,111.2 446.7,111.2 447.7,111.2 448.6,111.2 448.6,108.4 449.5,108.4 450.4,108.4 451.3,108.4 452.3,108.4 453.2,108.4 453.2,105.7 454.1,105.7 455.0,105.7 455.9,105.7 456.9,105.7 457.8,105.7 458.7,105.7 459.6,105.7 460.6,105.7 461.5,105.7 462.4,105.7 463.3,105.7 464.2,105.7 465.2,105.7 466.1,105.7 467.0,105.7 467.9,105.7 467.9,102.9 468.9,102.9 469.8,102.9 470.7,102.9 470.7,100.2 471.6,100.2 471.6,97.4 472.5,97.4 473.5,97.4 474.4,97.4 475.3,97.4 476.2,97.4 477.1,97.4 478.1,97.4 479.0,97.4 479.9,97.4 480.8,97.4 481.8,97.4 482.7,97.4 483.6,97.4 484.5,97.4 485.4,97.4 486.4,97.4 487.3,97.4 488.2,97.4 489.1,97.4 490.1,97.4 490.1,94.7 491.0,94.7 491.9,94.7 492.8,94.7 493.7,94.7 494.7,94.7 495.6,94.7 496.5,94.7 497.4,94.7 498.3,94.7 499.3,94.7 500.2,94.7 501.1,94.7 502.0,94.7 502.0,92.0 503.0,92.0 503.9,92.0 504.8,92.0 505.7,92.0 506.6,92.0 507.6,92.0 508.5,92.0 509.4,92.0 510.3,92.0 511.3,92.0 512.2,92.0 513.1,92.0 514.0,92.0 514.9,92.0 515.9,92.0 516.8,92.0 517.7,92.0 518.6,92.0 519.5,92.0 520.5,92.0 521.4,92.0 522.3,92.0 523.2,92.0 524.2,92.0 525.1,92.0 526.0,92.0 526.9,92.0 527.8,92.0 528.8,92.0 529.7,92.0 530.6,92.0 531.5,92.0 532.5,92.0 533.4,92.0 534.3,92.0 535.2,92.0 536.1,92.0 537.1,92.0 538.0,92.0 538.9,92.0 539.8,92.0 540.8,92.0 541.7,92.0 542.6,92.0 543.5,92.0 544.4,92.0 544.4,89.2 545.4,89.2 546.3,89.2 547.2,89.2 548.1,89.2 549.0,89.2 550.0,89.2 550.9,89.2 551.8,89.2 552.7,89.2 553.7,89.2 554.6,89.2 555.5,89.2 556.4,89.2 557.3,89.2 558.3,89.2 559.2,89.2 560.1,89.2 561.0,89.2 562.0,89.2 562.9,89.2 562.9,86.5 563.8,86.5 564.7,86.5 565.6,86.5 566.6,86.5 567.5,86.5 568.4,86.5 569.3,86.5 570.2,86.5 571.2,86.5 572.1,86.5 573.0,86.5 573.9,86.5 574.9,86.5 575.8,86.5 576.7,86.5 577.6,86.5 578.5,86.5 579.5,86.5 580.4,86.5 581.3,86.5 582.2,86.5 583.2,86.5 584.1,86.5 585.0,86.5 585.9,86.5 586.8,86.5 587.8,86.5 588.7,86.5 589.6,86.5 590.5,86.5 591.4,86.5 592.4,86.5 593.3,86.5 594.2,86.5 595.1,86.5 596.1,86.5 597.0,86.5 597.9,86.5 598.8,86.5 599.7,86.5 600.7,86.5 601.6,86.5 602.5,86.5 603.4,86.5 604.4,86.5 605.3,86.5 606.2,86.5 607.1,86.5 608.0,86.5 609.0,86.5 609.9,86.5 610.8,86.5 611.7,86.5 612.6,86.5 613.6,86.5 614.5,86.5 615.4,86.5 616.3,86.5 617.3,86.5 618.2,86.5 619.1,86.5 620.0,86.5 620.9,86.5 621.9,86.5 622.8,86.5 623.7,86.5 624.6,86.5 625.6,86.5 626.5,86.5 627.4,86.5 628.3,86.5 629.2,86.5 630.2,86.5 631.1,86.5 632.0,86.5 632.9,86.5 633.9,86.5 634.8,86.5 635.7,86.5 636.6,86.5 637.5,86.5 638.5,86.5 638.5,83.7 639.4,83.7 640.3,83.7 641.2,83.7 642.1,83.7 643.1,83.7 644.0,83.7 644.9,83.7 645.8,83.7 646.8,83.7 647.7,83.7 648.6,83.7 649.5,83.7 650.4,83.7 651.4,83.7 652.3,83.7 653.2,83.7 653.2,81.0 653.2,78.2 654.1,78.2 655.1,78.2 656.0,78.2 656.9,78.2 657.8,78.2 658.7,78.2 659.7,78.2 660.6,78.2 661.5,78.2 662.4,78.2 663.3,78.2 664.3,78.2 665.2,78.2 666.1,78.2 667.0,78.2 668.0,78.2 668.9,78.2 669.8,78.2 670.7,78.2 671.6,78.2 672.6,78.2 673.5,78.2 674.4,78.2 675.3,78.2 676.3,78.2 677.2,78.2 678.1,78.2 679.0,78.2 679.9,78.2 680.9,78.2 681.8,78.2 682.7,78.2 683.6,78.2 684.5,78.2 685.5,78.2 686.4,78.2 687.3,78.2 688.2,78.2 689.2,78.2 690.1,78.2 691.0,78.2 691.9,78.2 692.8,78.2 693.8,78.2 694.7,78.2 695.6,78.2 696.5,78.2 697.5,78.2 698.4,78.2 699.3,78.2 700.2,78.2 701.1,78.2 702.1,78.2 703.0,78.2 703.9,78.2 704.8,78.2 705.7,78.2 706.7,78.2 706.7,75.5 707.6,75.5 708.5,75.5 709.4,75.5 710.4,75.5 711.3,75.5 712.2,75.5 713.1,75.5 714.0,75.5 715.0,75.5 715.0,72.7 715.9,72.7 716.8,72.7 717.7,72.7 718.7,72.7 719.6,72.7 720.5,72.7 721.4,72.7 722.3,72.7 723.3,72.7 724.2,72.7 725.1,72.7 726.0,72.7 727.0,72.7 727.9,72.7 728.8,72.7 729.7,72.7 730.6,72.7 731.6,72.7 732.5,72.7 733.4,72.7 734.3,72.7 735.2,72.7 736.2,72.7 737.1,72.7 738.0,72.7 738.9,72.7 739.9,72.7 740.8,72.7 741.7,72.7 742.6,72.7 743.5,72.7 744.5,72.7 745.4,72.7 746.3,72.7 747.2,72.7 747.2,70.0 748.2,70.0 749.1,70.0 750.0,70.0 750.9,70.0 751.8,70.0 752.8,70.0 753.7,70.0 754.6,70.0 755.5,70.0 756.4,70.0 757.4,70.0 758.3,70.0 759.2,70.0 760.1,70.0 761.1,70.0 762.0,70.0 762.9,70.0 763.8,70.0 764.7,70.0 765.7,70.0 766.6,70.0 767.5,70.0 768.4,70.0 769.4,70.0 770.3,70.0 771.2,70.0 772.1,70.0 773.0,70.0 774.0,70.0 774.9,70.0 775.8,70.0 776.7,70.0 777.6,70.0 778.6,70.0 779.5,70.0 780.4,70.0 781.3,70.0 782.3,70.0 783.2,70.0 784.1,70.0 785.0,70.0 785.9,70.0 786.9,70.0 787.8,70.0 788.7,70.0 789.6,70.0 790.6,70.0 791.5,70.0 792.4,70.0 793.3,70.0 794.2,70.0 795.2,70.0 796.1,70.0 797.0,70.0 797.9,70.0 798.8,70.0 799.8,70.0 800.7,70.0 801.6,70.0 802.5,70.0 803.5,70.0 804.4,70.0 805.3,70.0 806.2,70.0 807.1,70.0 808.1,70.0 809.0,70.0 809.9,70.0 810.8,70.0 811.8,70.0 812.7,70.0 813.6,70.0 814.5,70.0 815.4,70.0 816.4,70.0 817.3,70.0 818.2,70.0 819.1,70.0 820.1,70.0 821.0,70.0 821.9,70.0 822.8,70.0 823.7,70.0 824.7,70.0 825.6,70.0 826.5,70.0 827.4,70.0 828.3,70.0 829.3,70.0 830.2,70.0 831.1,70.0 832.0,70.0 833.0,70.0 833.9,70.0 834.8,70.0 835.7,70.0 836.6,70.0 837.6,70.0 838.5,70.0 839.4,70.0 840.3,70.0 841.3,70.0 842.2,70.0 843.1,70.0 844.0,70.0 844.9,70.0 845.9,70.0 846.8,70.0 847.7,70.0 848.6,70.0 849.5,70.0 850.5,70.0 851.4,70.0 852.3,70.0 853.2,70.0 854.2,70.0 855.1,70.0 856.0,70.0 856.0,70.0"/>
<circle cx="90.0" cy="424.0" r="3" fill="#2474a6"/>
<circle cx="123.2" cy="303.3" r="3" fill="#2474a6"/>
<circle cx="177.6" cy="245.6" r="3" fill="#2474a6"/>
<circle cx="238.4" cy="207.2" r="3" fill="#2474a6"/>
<circle cx="302.0" cy="177.0" r="3" fill="#2474a6"/>
<circle cx="360.1" cy="130.4" r="3" fill="#2474a6"/>
<circle cx="428.3" cy="113.9" r="3" fill="#2474a6"/>
<circle cx="495.6" cy="94.7" r="3" fill="#2474a6"/>
<circle cx="566.6" cy="86.5" r="3" fill="#2474a6"/>
<circle cx="639.4" cy="83.7" r="3" fill="#2474a6"/>
<circle cx="710.4" cy="75.5" r="3" fill="#2474a6"/>
<circle cx="782.3" cy="70.0" r="3" fill="#2474a6"/>
<circle cx="856.0" cy="70.0" r="3" fill="#2474a6"/>
</svg>