<svg xmlns="http://www.w3.org/2000/svg" width="940" height="540" viewBox="0 0 940 540"><style>text{font-family:Arial,Helvetica,sans-serif;fill:#27313f}.title{font-size:24px;font-weight:700}.label{font-size:13px}.axis-title{font-size:16px;font-weight:700;fill:#27313f}.small{font-size:11px;fill:#566474}.axis{stroke:#8d99a8;stroke-width:1}.grid{stroke:#d9dee7;stroke-width:1}</style>
<text x="32.0" y="38.0" class="title" text-anchor="start">Expected loss and VaR by stress scenario</text>
<rect x="660" y="24" width="14" height="14" fill="#2474a6"/>
<text x="682.0" y="36.0" class="small" text-anchor="start">Expected loss</text>
<rect x="790" y="24" width="14" height="14" fill="#d95f36"/>
<text x="812.0" y="36.0" class="small" text-anchor="start">VaR 95</text>
<line x1="96" y1="424.0" x2="894" y2="424.0" class="grid"/>
<text x="86.0" y="428.0" class="small" text-anchor="end">0.00</text>
<line x1="96" y1="337.5" x2="894" y2="337.5" class="grid"/>
<text x="86.0" y="341.5" class="small" text-anchor="end">3.30</text>
<line x1="96" y1="251.0" x2="894" y2="251.0" class="grid"/>
<text x="86.0" y="255.0" class="small" text-anchor="end">6.59</text>
<line x1="96" y1="164.5" x2="894" y2="164.5" class="grid"/>
<text x="86.0" y="168.5" class="small" text-anchor="end">9.89</text>
<line x1="96" y1="78.0" x2="894" y2="78.0" class="grid"/>
<text x="86.0" y="82.0" class="small" text-anchor="end">13.19</text>
<line x1="96" y1="424" x2="894" y2="424" class="axis"/>
<text x="34.0" y="251.0" class="axis-title" text-anchor="middle" transform="rotate(-90 34.0 251.0)">Loss (GBP millions)</text>
<text x="495.0" y="512.0" class="axis-title" text-anchor="middle">Stress scenario</text>
<rect x="96.0" y="249.0" width="98.9" height="175.0" rx="4" fill="#2474a6"/>
<rect x="199.9" y="235.4" width="98.9" height="188.6" rx="4" fill="#d95f36"/>
<text x="219.7" y="450.0" class="small" text-anchor="middle">baseline</text>
<rect x="371.3" y="210.1" width="98.9" height="213.9" rx="4" fill="#2474a6"/>
<rect x="475.3" y="194.5" width="98.9" height="229.5" rx="4" fill="#d95f36"/>
<text x="495.0" y="450.0" class="small" text-anchor="middle">mild_stress</text>
<rect x="646.7" y="157.7" width="98.9" height="266.3" rx="4" fill="#2474a6"/>
<rect x="750.6" y="140.4" width="98.9" height="283.6" rx="4" fill="#d95f36"/>
<text x="770.3" y="450.0" class="small" text-anchor="middle">severe_stress</text>
</svg>